<?xml version="1.0" encoding="utf-8"?>
<!-- Generator: Adobe Illustrator 15.1.0, SVG Export Plug-In  -->
<!DOCTYPE svg PUBLIC "-//W3C//DTD SVG 1.1//EN" "http://www.w3.org/Graphics/SVG/1.1/DTD/svg11.dtd" [
	<!ENTITY ns_flows "http://ns.adobe.com/Flows/1.0/">
]>
<svg version="1.1"
	 xmlns="http://www.w3.org/2000/svg" xmlns:xlink="http://www.w3.org/1999/xlink" xmlns:a="http://ns.adobe.com/AdobeSVGViewerExtensions/3.0/"
	 x="0px" y="0px" width="507px" height="409px" viewBox="0 0.001 507 409"
	 overflow="visible" enable-background="new 0 0.001 507 409" xml:space="preserve">
<defs>
</defs>
<g>
	<defs>
		<rect id="SVGID_1_" y="0.001" width="506.997" height="409.108"/>
	</defs>
	<clipPath id="SVGID_2_">
		<use xlink:href="#SVGID_1_"  overflow="visible"/>
	</clipPath>
	<path clip-path="url(#SVGID_2_)" fill="#181818" d="M491.975,0.157c8.831,0.399,13.821,5.059,14.858,13.878
		c-0.673,1.948-0.332,3.964-0.332,5.944c-0.021,93.066-0.016,186.132-0.034,279.198c-0.001,1.981,0.333,3.996-0.328,5.947
		c-2.66,2.041-5.776,1.254-8.696,1.256c-90.778,0.044-181.558,0.036-272.336,0.036c-71.957,0-143.914,0.008-215.871-0.031
		c-2.77-0.002-5.699,0.667-8.248-1.135c-0.908-1.908-0.449-3.94-0.45-5.907c-0.026-93.123-0.02-186.247-0.04-279.371
		c-0.001-1.982,0.34-3.998-0.332-5.948C1.172,5.537,5.635,1.096,14.047,0.213C15.841,0.775,17.686,0.5,19.504,0.5
		C175.18,0.515,330.855,0.515,486.532,0.499C488.346,0.499,490.195,0.822,491.975,0.157"/>
	<path clip-path="url(#SVGID_2_)" fill="#D1D2D4" d="M195.008,354.002c-59.992,0.014-119.985,0.041-179.977,0.03
		c-8.98-0.002-15.012-6.084-15.025-15.027c-0.014-9.998,0.042-19.997,0.067-29.995c2.434-2.091,5.391-1.396,8.151-1.399
		c49.621-0.042,99.242-0.029,148.863-0.029c113.729,0,227.458-0.006,341.185,0.034c2.919,0.001,6.049-0.781,8.652,1.395
		c0.024,9.829,0.067,19.657,0.068,29.486c0.001,9.612-5.883,15.537-15.511,15.54c-57.808,0.014-115.616,0.005-173.424,0.007
		c-2.332,0-4.664,0.036-6.996,0.055c-1.309,0.277-2.635,0.318-3.967,0.318c-36.053-0.018-72.107,0.001-108.161-0.013
		c-0.996,0-1.994-0.006-2.98-0.186C195.639,354.147,195.323,354.076,195.008,354.002"/>
	<path clip-path="url(#SVGID_2_)" fill="#A7A8A9" d="M166.925,406.018c3.521-3.135,8.091-2.338,12.181-2.97
		c9.747-1.507,10.06-1.541,11.869-11.218c2.337-12.504,3.879-25.092,4.033-37.828l0.013,0.06c1.019-0.817,2.229-0.537,3.367-0.537
		c36.292-0.013,72.584-0.013,108.877-0.01c0.83,0,1.665-0.038,2.452,0.257c1.834,3.099-0.92,4.491-2.476,6.146
		c-12.717,13.532-26.754,25.715-39.854,38.861c-2.79,2.799-5.199,6.053-8.779,8.024c-2.27,0.794-4.62,0.594-6.941,0.595
		c-23.643,0.021-47.287,0.057-70.93-0.025C176.114,407.356,171.426,407.501,166.925,406.018"/>
	<path clip-path="url(#SVGID_2_)" fill="#D1D2D4" d="M259.913,404.859c9.092-10.102,19.292-19.067,29.068-28.47
		c7.046-6.774,13.92-13.729,20.87-20.603c1.625,2.563-0.3,5.625,1.149,8.213c1.668,10.953,1.955,22.099,4.864,32.892
		c0.771,2.864,2.199,4.36,4.88,4.834c4.729,0.834,9.478,1.553,14.217,2.319c-0.586,2.831-2.95,2.181-4.775,2.315
		c-21.371,1.576-42.78,0.991-64.178,0.99C263.784,407.35,260.87,408.283,259.913,404.859"/>
	<path clip-path="url(#SVGID_2_)" fill="#D6D7D9" d="M506.924,309.01c-168.951,0-337.902,0-506.852,0
		c0.006-0.351,0.011-0.703,0.015-1.054c2.46-2.042,5.415-1.343,8.178-1.344c68.329-0.04,136.658-0.031,204.986-0.031
		c94.994,0,189.988-0.008,284.981,0.034c2.922,0.002,6.049-0.781,8.678,1.341C506.915,308.307,506.919,308.66,506.924,309.01"/>
	<path clip-path="url(#SVGID_2_)" fill="#C4C4C7" d="M506.91,307.957c-131.954,0.014-263.909,0.032-395.863,0.04
		c-36.987,0.002-73.974-0.025-110.96-0.04c-0.001-0.359-0.002-0.719-0.003-1.078c1.794-1.262,3.856-0.858,5.819-0.858
		c165.064-0.02,330.128-0.02,495.191,0c1.964,0,4.026-0.403,5.82,0.858C506.913,307.238,506.911,307.597,506.91,307.957"/>
	<path clip-path="url(#SVGID_2_)" fill="#353639" d="M506.914,306.878c-1.331,0.04-2.662,0.115-3.993,0.115
		C336.64,307,170.357,307,4.077,306.994c-1.331,0-2.662-0.075-3.993-0.115c-0.116-0.314-0.093-0.619,0.067-0.913
		c0.586-0.347,1.219-0.496,1.899-0.446c167.632-0.008,335.265-0.008,502.897-0.003c0.681-0.048,1.313,0.103,1.9,0.449
		C507.007,306.259,507.029,306.565,506.914,306.878"/>
	<path clip-path="url(#SVGID_2_)" fill="#0C0C0C" d="M491.975,0.157c-1.573,1.421-3.5,0.815-5.266,0.815
		C330.919,1.001,175.13,1,19.34,0.973c-1.773,0-3.689,0.579-5.293-0.76c1.326-0.072,2.653-0.206,3.979-0.206
		c156.821-0.009,313.641-0.009,470.46-0.002C489.649,0.005,490.812,0.104,491.975,0.157"/>
	<path clip-path="url(#SVGID_2_)" fill="#0C0C0C" d="M0.993,305.959l-0.421,0.021l-0.422-0.017
		c-0.051-0.995-0.145-1.991-0.145-2.987c-0.007-95.155-0.007-190.311,0-285.466c0.001-1.162,0.104-2.324,0.16-3.487
		c1.535,1.921,0.797,4.177,0.798,6.265c0.043,94.901,0.04,189.802,0.042,284.703c0.348,0.219,0.462,0.437,0.343,0.65
		C1.23,305.854,1.112,305.959,0.993,305.959"/>
	<path clip-path="url(#SVGID_2_)" fill="#0C0C0C" d="M506.848,305.965l-0.423,0.016l-0.421-0.021
		c-0.354-0.211-0.473-0.425-0.358-0.642c0.113-0.218,0.229-0.327,0.347-0.327c0.002-94.897-0.001-189.795,0.042-284.693
		c0.001-2.087-0.742-4.344,0.799-6.263c0.056,1.162,0.158,2.325,0.159,3.487c0.007,95.152,0.007,190.304,0,285.455
		C506.992,303.973,506.897,304.969,506.848,305.965"/>
	<path clip-path="url(#SVGID_2_)" fill="#D9D9D9" d="M259.913,404.859c1.394,1.773,3.369,1.104,5.11,1.109
		c16.302,0.047,32.627,0.532,48.895-0.209c6.977-0.316,14.161,0.313,21.044-1.716c1.661,0.468,3.68,1.004,3.812,2.852
		c0.105,1.484-1.746,0.985-2.835,1.076c-2.535-0.817-5.064,0.468-7.603,0.023c-4.284,0-8.564,0-12.849,0.002
		c-41.994-0.002-83.983-0.001-125.97,0c-4.092-0.018-8.188,0.031-12.282-0.03c-2.669-0.791-5.541,0.144-8.175-0.955
		c-0.68-0.399-2.172,0.945-2.135-0.993c28.916-0.014,57.832-0.025,86.749-0.045C255.815,405.971,258.027,406.308,259.913,404.859"/>
	<path clip-path="url(#SVGID_2_)" fill="#D6D7D9" d="M311.001,364c-2.066-2.501-0.45-5.517-1.148-8.211
		c-0.774-3.086-3.292-1.674-4.962-1.678c-36.623-0.083-73.246-0.056-109.869-0.049c1.422-1.743,3.397-1.03,5.131-1.032
		c35.259-0.041,70.519-0.04,105.778-0.003c1.743,0.001,3.713-0.663,5.131,1.07C311.042,357.399,311.021,360.7,311.001,364"/>
	<path clip-path="url(#SVGID_2_)" fill="#181818" d="M292.951,408.801h-79.904c-0.205-0.772,0.091-1.191,0.888-1.256
		c26.043-0.053,52.084-0.052,78.127-0.001C292.86,407.61,293.156,408.029,292.951,408.801"/>
	<path clip-path="url(#SVGID_2_)" fill="#464646" d="M213.102,408.215c0.012,0.198-0.006,0.394-0.055,0.586
		c-12.794,0.021-25.603,0.992-38.369-0.629c0.478-0.976,1.603-0.447,2.273-0.978c3.987-0.008,7.975-0.016,11.963-0.024
		c6.464,0.778,12.954,0.093,19.424,0.373C209.93,407.612,211.676,406.888,213.102,408.215"/>
	<path clip-path="url(#SVGID_2_)" fill="#464646" d="M292.951,408.801c-0.049-0.192-0.067-0.388-0.057-0.586
		c7.47-1.604,15.03-0.253,22.533-0.702c2.129,0.655,4.826-1.401,6.518,1.36C312.28,408.849,302.616,408.826,292.951,408.801"/>
	<path clip-path="url(#SVGID_2_)" fill="#696969" d="M321.945,408.874c-1.786-1.687-4.026-0.499-6.009-0.948
		c-0.298-0.228-0.376-0.413-0.234-0.557c0.119-0.122,0.244-0.184,0.376-0.184c4.332-0.024,8.664-0.05,12.995-0.074
		c1.568,1.08,3.665-0.415,5.152,1.056C330.193,409.441,326.056,408.929,321.945,408.874"/>
	<path clip-path="url(#SVGID_2_)" fill="#3D3D3D" d="M176.951,407.195c-0.758,0.326-1.515,0.651-2.273,0.978
		c-2.012,0.289-4.061,0.758-5.617-1.161C171.691,407.074,174.321,407.134,176.951,407.195"/>
	<path clip-path="url(#SVGID_2_)" fill="#3C3C3C" d="M334.227,408.167c-1.619-0.834-3.688,0.522-5.153-1.056
		c2.287,0.297,4.788-1.106,6.866,0.86C335.368,408.037,334.798,408.101,334.227,408.167"/>
	<path clip-path="url(#SVGID_2_)" fill="#101011" d="M505.993,304.992c0.003,0.323,0.007,0.646,0.011,0.969
		c-155.35,0.013-310.699,0.026-466.049,0.036c-12.987,0.001-25.974-0.022-38.961-0.036c0.004-0.323,0.008-0.646,0.011-0.969
		C169.333,304.992,337.664,304.992,505.993,304.992"/>
	<path clip-path="url(#SVGID_2_)" d="M21.095,26.115c1.188-1.763,3.018-1.087,4.581-1.087c151.547-0.03,303.095-0.03,454.642,0.001
		c1.555,0,3.398-0.704,4.551,1.122c-0.266,0.203-0.531,0.406-0.794,0.613c-2.237,0.93-4.6,0.636-6.915,0.636
		c-149.457,0.018-298.916,0.017-448.373,0c-2.315,0-4.678,0.305-6.913-0.651C21.613,26.54,21.354,26.327,21.095,26.115"/>
	<path clip-path="url(#SVGID_2_)" d="M484.834,286.812c-1.113,1.891-2.972,1.155-4.518,1.155C328.77,288,177.222,288,25.674,287.968
		c-1.548-0.001-3.402,0.722-4.528-1.146c0.267-0.199,0.535-0.399,0.801-0.604c2.241-0.907,4.6-0.62,6.916-0.62
		c149.417-0.018,298.835-0.018,448.252-0.001c2.314,0.001,4.675-0.291,6.921,0.605C484.303,286.404,484.569,286.608,484.834,286.812
		"/>
	<path clip-path="url(#SVGID_2_)" d="M21.146,286.822c-1.858-1.138-1.114-2.989-1.114-4.532
		c-0.036-83.863-0.036-167.727-0.004-251.589c0.001-1.562-0.68-3.387,1.067-4.586c0,0.001,0.066,0.045,0.066,0.045
		c1.583,1.835,1.233,4.08,1.234,6.208c0.027,82.723,0.026,165.446-0.001,248.169c-0.001,2.126,0.364,4.369-1.172,6.229
		L21.146,286.822z"/>
	<path clip-path="url(#SVGID_2_)" d="M484.867,26.151c1.824,1.157,1.1,3.001,1.101,4.549c0.035,83.866,0.035,167.732-0.002,251.598
		c-0.001,1.538,0.761,3.398-1.131,4.516c-0.001-0.001-0.082-0.063-0.082-0.063c-1.513-1.868-1.148-4.108-1.149-6.234
		c-0.027-82.698-0.027-165.396,0-248.093c0.001-2.125-0.361-4.37,1.192-6.219L484.867,26.151z"/>
	<path clip-path="url(#SVGID_2_)" fill="#060503" d="M255.934,11.959c-1.191,0.103-1.047-1.397-2.391-1.628
		c-1.536-0.264-1.536,2.476-2.417,1.03c-0.645-1.06,0.179-2.658,1.653-3.079c1.762-0.502,2.796,0.456,3.14,2.168
		C256.013,10.917,255.934,11.418,255.934,11.959"/>
	<path clip-path="url(#SVGID_2_)" fill="#8D8D8E" d="M316.078,407.185c-0.045,0.247-0.092,0.494-0.141,0.741
		c-7.681,0.096-15.361,0.191-23.042,0.288c-26.598,0-53.196,0-79.793,0c-6.301-0.071-12.601-0.119-18.901-0.23
		c-1.787-0.031-3.678,0.438-5.287-0.813C231.302,407.176,273.69,407.18,316.078,407.185"/>
	<path clip-path="url(#SVGID_2_)" fill="#AAAAAB" d="M484.795,26.202c0.077,10.646,0.22,21.292,0.223,31.938
		c0.018,74.547,0.01,149.095-0.004,223.643c0,1.655-0.17,3.312-0.262,4.968c-2.995,0.037-5.991,0.106-8.987,0.106
		c-149.518,0.007-299.034,0.007-448.551,0.002c-1.998-0.001-3.995-0.062-5.992-0.095c-0.089-1.323-0.255-2.646-0.255-3.971
		c-0.003-84.216,0.006-168.432,0.022-252.649c0.001-1.328,0.112-2.656,0.172-3.985c1.829-0.053,3.659-0.154,5.489-0.154
		c150.72-0.007,301.441-0.007,452.161,0.002C480.806,26.007,482.801,26.134,484.795,26.202"/>
	<path clip-path="url(#SVGID_2_)" fill="#FEFEFE" d="M483.883,56.004c0.055,15.161,0.154,30.321,0.158,45.482
		c0.017,59.654-0.044,119.307,0.099,178.959c0.011,4.326-0.971,5.541-5.456,5.537c-150.466-0.13-300.933-0.111-451.4-0.077
		c-3.207,0.001-5.481,0.262-5.47-4.461c0.166-74.316,0.118-148.634,0.126-222.951c0-0.83,0.099-1.661,0.152-2.491
		c0.501-0.457,1.065-0.814,1.69-1.077c2.433-0.768,4.949-0.55,7.436-0.551c147.847-0.014,295.694-0.013,443.541,0
		c2.488,0,5.003-0.216,7.444,0.532C482.831,55.169,483.39,55.536,483.883,56.004"/>
	<path clip-path="url(#SVGID_2_)" fill="#FBFBFB" d="M483.883,56.004c-0.298-0.005-0.597-0.009-0.895-0.012
		c-1.593-1.77-1.559-3.972-1.591-6.136c-0.064-4.332,0.001-8.664-0.031-12.996c-0.053-6.899-0.33-7.162-7.439-7.23
		c-1.833-0.017-3.666-0.004-5.498-0.004c-142.455,0-284.91-0.014-427.364,0.054c-5.091,0.003-11.393-2.168-14.987,1.276
		c-3.644,3.494-0.971,9.837-1.444,14.905c-0.319,3.416,0.783,7.053-1.626,10.132c-0.306,0.003-0.611,0.006-0.916,0.01
		c-0.039-8.33,0.016-16.662-0.169-24.989c-0.065-2.914,0.652-4.475,3.859-4.041c0.982,0.133,1.997,0.021,2.997,0.021
		c149.47,0,298.94-0.005,448.411,0.014c7.777,0.001,6.739-0.976,6.782,7.006C484.011,41.344,483.918,48.674,483.883,56.004"/>
	<path clip-path="url(#SVGID_2_)" fill="#F0F0F0" d="M23.008,55.993C23.006,48,23.102,40.005,22.95,32.015
		c-0.058-3.002,0.909-4.383,3.997-4.031C27.933,28.096,28.943,28,29.942,28c148.704,0,297.409,0,446.113,0
		c6.942,0,6.944,0.002,6.943,7.01c0,6.994-0.006,13.988-0.01,20.982C329.661,55.992,176.335,55.993,23.008,55.993"/>
	<path clip-path="url(#SVGID_2_)" fill="#567CB8" d="M326.862,230.953c7.222-21.922,14.356-43.874,21.705-65.754
		c3.632-10.816,6.622-21.862,11.24-32.337c5.534,1.461,11.168,0.359,16.75,0.623c3.987,0.188,7.987-0.048,11.981,0.076
		c-9.563-0.503-19.159,0.715-28.701-0.699c7.373-1.629,14.84-0.361,22.256-0.711c2.99-0.142,5.992-0.006,8.989-0.018
		c1.379-0.005,2.307,0.354,1.853,2.012c-0.354,1.19,0.15,2.465-0.353,3.644c-4.664,14.729-10.017,29.23-14.412,44.045
		c-0.239,0.807-0.562,1.561-1.313,2.037c-2.635,3.359-3.148,7.578-4.508,11.431c-3.248,9.209-6.187,18.526-9.303,27.782
		c-1.505,4.471-4.051,7.952-9.087,8.826c-7.12,0.027-14.239,0.169-21.358,0.065C330.652,231.947,328.566,232.452,326.862,230.953"/>
	<path clip-path="url(#SVGID_2_)" fill="#1E9D5B" d="M394.101,135.839c5.535,13.33,9.499,27.205,14.112,40.853
		c6.099,18.044,11.933,36.177,17.881,54.272c-2.182,1.708-4.74,0.922-7.138,1.002c-6.328,0.211-12.663-0.191-18.992,0.132
		c-3.054-0.114-5.413-1.478-7.14-3.976c-0.936-2.696-1.25-5.469-1.248-8.32c0.022-25.064-0.003-50.131,0.032-75.196
		C391.613,141.481,391.393,138.227,394.101,135.839"/>
	<path clip-path="url(#SVGID_2_)" fill="#DCDCDC" d="M158.705,252.023c30.154,0,60.308,0.081,90.461-0.094
		c4.146-0.024,5.25,1.411,4.907,5.191c-0.192,2.129-1.028,3.013-3.091,2.896c-0.664-0.038-1.333,0.003-1.999,0.003
		c-60.308,0-120.615,0.005-180.923-0.02c-2.314-0.001-4.917,0.891-5.257-3.279c-0.314-3.858,0.677-4.79,4.441-4.773
		C97.73,252.083,128.217,252.023,158.705,252.023"/>
	<path clip-path="url(#SVGID_2_)" fill="#DCDCDC" d="M158.518,240.974c-30.152,0-60.305-0.054-90.457,0.069
		c-3.736,0.016-5.625-0.719-5.182-4.927c0.25-2.369,1.111-3.297,3.38-3.132c0.663,0.048,1.332,0.001,1.998,0.001
		c60.139,0,120.277-0.01,180.415,0.04c2.192,0.002,5.138-1.223,5.436,3.043c0.287,4.113-1.306,4.999-5.133,4.981
		C218.823,240.914,188.669,240.974,158.518,240.974"/>
	<path clip-path="url(#SVGID_2_)" fill="#0C6E3D" d="M376.857,183.871c-0.063-4.076,1.726-7.674,2.996-11.393
		c4.032-11.818,7.43-23.855,12.16-35.434c0.761,3.405,0.404,6.873,0.419,10.297c0.098,23.391,0.056,46.783,0.045,70.175
		c-0.001,2.626,0.312,5.333-1.523,7.6C385.561,211.605,381.553,197.62,376.857,183.871"/>
	<path clip-path="url(#SVGID_2_)" fill="#D9D9D9" d="M253.974,273c-0.125,0.309-0.393,0.636-0.354,0.922
		c0.961,7.178-3.865,6.123-8.339,6.118c-58.464-0.059-116.929-0.039-175.394-0.04c-6.974,0-6.974-0.002-6.887-7.002
		c1.56-0.881,3.262-0.464,4.893-0.465c60.397-0.023,120.793-0.024,181.19,0C250.712,272.535,252.415,272.115,253.974,273"/>
	<path clip-path="url(#SVGID_2_)" fill="#464FD6" d="M64.004,202.952c23.926-0.082,47.852-0.126,71.777-0.297
		c2.861-0.02,3.306,1.271,3.168,3.634c-0.117,2.004,0.357,3.966-2.85,3.954c-23.767-0.086-47.534-0.053-71.301-0.062
		c-0.858,0-1.655-0.143-1.885-1.174c1.717-0.967,3.584-0.463,5.372-0.467c22.922-0.043,45.845-0.018,68.768-0.052
		c-23.41,0.016-46.82-0.033-70.23,0.023c-2.558,0.008-3.878-0.678-3.054-3.459c1.028-0.782,2.233-0.527,3.374-0.527
		c21.969-0.015,43.938-0.009,65.907-0.016c0.743,0,1.476-0.006,1.44-0.021c-22.805-0.052-46.357,0.087-69.909-0.078
		C63.83,204.144,63.638,203.658,64.004,202.952"/>
	<path clip-path="url(#SVGID_2_)" fill="#EDC12F" d="M260.995,173.769c-1.652,0.098-3.306,0.281-4.957,0.281
		c-63.884,0.015-127.77-0.048-191.653,0.133c-4.777,0.014-5.638-1.483-5.582-5.823c0.284-21.783,0.257-43.571,0.34-65.357
		c0.676-0.244,1.187-0.051,1.538,0.577c0.295,0.559,0.496,1.149,0.621,1.767c0.306,12.496,0.056,24.996,0.119,37.495
		c-0.034,3.155-0.026,6.31,0.002,9.465c0.14,4.825-0.142,9.649,0.159,14.48c0.191,3.075,1.492,4.582,4.6,4.558
		c1.496-0.012,2.996,0.047,4.494,0.047c59.611,0.002,119.222,0.004,178.832-0.001c8.866-0.001,8.728-0.018,8.913-8.763
		c0.403-19.139-0.571-38.283,0.254-57.423c0.144-0.645,0.39-1.248,0.725-1.815c0.438-0.612,0.999-0.763,1.686-0.457l-0.026-0.018
		c0.768,1.577,0.405,3.261,0.407,4.893c0.026,20.365,0.029,40.731-0.004,61.096C261.46,170.525,261.891,172.221,260.995,173.769"/>
	<path clip-path="url(#SVGID_2_)" fill="#DCDCDC" d="M215.742,72.998c-5.651,0-11.307-0.147-16.95,0.057
		c-3.238,0.117-3.897-1.34-3.867-4.182c0.029-2.64,0.663-3.942,3.632-3.912c11.633,0.118,23.268,0.118,34.901,0
		c2.984-0.031,3.581,1.299,3.613,3.926c0.035,2.857-0.657,4.28-3.88,4.168C227.381,72.853,221.559,72.998,215.742,72.998"/>
	<path clip-path="url(#SVGID_2_)" fill="#DCDCDC" d="M328.189,65.006c5.647,0,11.299,0.144,16.939-0.056
		c3.186-0.113,3.882,1.249,3.918,4.134c0.039,3.091-1.108,4-4.091,3.966c-11.292-0.129-22.587-0.119-33.88-0.005
		c-2.882,0.029-4.16-0.693-4.19-3.878c-0.032-3.332,1.168-4.33,4.365-4.217C316.891,65.149,322.543,65.006,328.189,65.006"/>
	<path clip-path="url(#SVGID_2_)" fill="#DCDCDC" d="M360.037,66.004c0.958-1.309,2.378-0.986,3.67-0.987
		c12.665-0.017,25.33,0.073,37.993-0.069c3.182-0.036,4.365,0.844,4.404,4.202c0.044,3.74-1.887,3.903-4.703,3.883
		c-11.83-0.081-23.668-0.26-35.49,0.076c-4.836,0.137-6.829-1.267-5.893-6.112c7.743-1.109,15.527-0.261,23.291-0.455
		c5.638-0.141,11.282-0.058,16.924-0.013c2.305,0.019,5.344-0.831,4.241,4.062c0.376-3.846-1.54-4.189-4.222-4.161
		c-11.778,0.125-23.561,0.073-35.341,0.032C363.287,66.456,361.59,66.891,360.037,66.004"/>
	<path clip-path="url(#SVGID_2_)" fill="#F2F3F3" d="M97.327,82.137H390.67c0,0.167,0,0.334,0,0.501H97.126
		C97.193,82.471,97.26,82.304,97.327,82.137"/>
	<path clip-path="url(#SVGID_2_)" fill="#DCDCDC" d="M266.027,72.993c-4.823,0.004-9.649-0.086-14.471,0.04
		c-2.541,0.067-3.674-0.812-3.548-3.442c0.109-2.289,0.108-4.537,3.213-4.548c10.313-0.039,20.627,0.009,30.939-0.045
		c3.083-0.016,2.831,2.054,2.869,4.088c0.04,2.153-0.04,3.997-3.034,3.935C276.676,72.911,271.351,72.989,266.027,72.993"/>
	<path clip-path="url(#SVGID_2_)" fill="#DDDDDD" d="M166.441,72.994c-4.654,0.002-9.311-0.095-13.961,0.04
		c-2.609,0.075-3.581-0.957-3.479-3.511c0.093-2.325,0.2-4.479,3.28-4.487c9.64-0.024,19.28,0.007,28.921-0.031
		c3.118-0.012,2.716,2.167,2.791,4.15c0.083,2.209-0.147,3.946-3.092,3.871C176.083,72.901,171.261,72.992,166.441,72.994"/>
	<path clip-path="url(#SVGID_2_)" fill="#DDDDDD" d="M124.98,72.999c-3.159,0-6.323-0.114-9.475,0.034
		c-2.889,0.135-4.666-0.283-4.638-3.936c0.025-3.413,1.339-4.23,4.453-4.145c6.479,0.178,12.968,0.15,19.449,0.018
		c3.38-0.069,4.202,1.58,4.254,4.612c0.053,3.123-1.566,3.53-4.069,3.445C131.633,72.914,128.305,72.999,124.98,72.999"/>
	<path clip-path="url(#SVGID_2_)" fill="#EDEDED" d="M60.208,185.177H261.77l0.001,0.501H60.217
		C60.214,185.511,60.212,185.344,60.208,185.177"/>
	<path clip-path="url(#SVGID_2_)" fill="#00A14F" d="M162.008,218.942c2.478,6.087,1.722,7.455-4.169,7.456
		c-30.082,0.006-60.165,0.025-90.247-0.061c-1.562-0.004-3.747,1.217-4.715-1.312c0.616-0.745,1.127-1.602,2.096-1.973
		c1.752-0.665,3.593-0.634,5.42-0.636c27.952-0.031,55.903-0.025,83.854-0.003c1.661,0.001,3.333-0.028,4.932,0.467
		c0.481-0.41,1.089,2.167,1.481-0.045C160.905,221.453,160.939,220.027,162.008,218.942"/>
	<path clip-path="url(#SVGID_2_)" fill="#EEC233" d="M59.995,103.029c-0.284-0.011-0.568-0.02-0.852-0.027
		c1.275-1.675,3.082-0.819,4.606-0.82c64.209-0.052,128.419-0.05,192.628-0.01c1.567,0.001,3.341-0.7,4.707,0.761
		c-0.359,0.033-0.721,0.066-1.081,0.099c-1.805,1.595-4.03,1.367-6.175,1.368c-62.553,0.022-125.107,0.022-187.66,0
		C64.024,104.399,61.798,104.626,59.995,103.029"/>
	<path clip-path="url(#SVGID_2_)" fill="#DCDCDC" d="M253.974,273C190.315,273,126.657,273,62.999,272.999
		c1.478-1.634,3.434-0.947,5.176-0.948c60.209-0.035,120.418-0.035,180.627,0.001C250.542,272.052,252.5,271.353,253.974,273"/>
	<path clip-path="url(#SVGID_2_)" fill="#019C43" d="M64.004,223.997c-0.376,0.343-0.751,0.686-1.127,1.028
		c-0.65-6.361-0.65-6.363,5.358-6.363c29.439-0.001,58.878-0.005,88.317,0.012c1.818,0.001,3.637,0.175,5.455,0.27
		c-0.482,1.655,1.008,3.706-1.011,5.056c-1.704-2.351-4.276-2.383-6.765-2.389c-27.82-0.064-55.641-0.064-83.461,0
		C68.282,221.616,65.709,221.645,64.004,223.997"/>
	<path clip-path="url(#SVGID_2_)" fill="#0B693B" d="M390.954,225.116c1.403-5.38,1.038-10.875,1.041-16.343
		c0.009-19.978-0.006-39.955,0.012-59.93c0.004-3.933-0.749-7.867,0.007-11.799c0.131-1.023-0.104-2.162,0.923-2.899
		c0.388,0.565,0.775,1.13,1.164,1.695c-0.354,1.945-1.017,3.89-1.014,5.835c0.036,28.548,0.162,57.096,0.243,85.644
		c0,0.267-0.331,0.536-0.507,0.804C391.791,227.375,391.135,226.394,390.954,225.116"/>
	<path clip-path="url(#SVGID_2_)" fill="#3B44D4" d="M64.008,205.01c-0.186,3.971,2.787,2.956,4.893,2.959
		c20.988,0.049,41.976,0.029,62.964,0.029h4.919c-0.004,0.336-0.008,0.672-0.012,1.008H62.913c0.211-2.046-1.302-4.402,1.092-6.055
		c0,0.346,0,0.692,0.001,1.038c0.362,0.226,0.482,0.452,0.363,0.679C64.249,204.896,64.13,205.01,64.008,205.01"/>
	<path clip-path="url(#SVGID_2_)" fill="#F2F2F2" d="M60.259,83.866c-5.541-1.71-11.227-0.662-16.843-0.822
		C36.976,82.859,30.527,83,24.075,82c7.226,0,14.463,0.261,21.675-0.054c15.089-0.659,30.174-1.233,45.279-0.954
		c3.57,0.065,3.569,0.106,2.736,2.889c-1.423-1.213-3.151-0.862-4.78-0.87c-7.98-0.034-15.961-0.035-23.942,0.001
		C63.416,83.019,61.687,82.661,60.259,83.866"/>
	<path clip-path="url(#SVGID_2_)" fill="#EEC233" d="M260.995,173.769c0.021-23.618,0.042-47.236,0.063-70.854
		c0.96,0.947,0.678,2.169,0.678,3.299c0.016,21.448,0.019,42.896-0.008,64.344C261.728,171.65,262.177,172.917,260.995,173.769"/>
	<path clip-path="url(#SVGID_2_)" fill="#DA3E2C" d="M60.259,83.866c-0.523-1.686,0.416-1.956,1.797-1.954
		c9.989,0.019,19.978,0.019,29.966,0.001c1.394-0.002,2.32,0.285,1.743,1.968C82.596,83.875,71.428,83.871,60.259,83.866"/>
	<path clip-path="url(#SVGID_2_)" fill="#D93723" d="M62.944,67.004c0.121-2.92,2.389-1.65,3.684-1.679
		c6.242-0.138,12.488-0.067,18.734-0.06c5.919,0.006,6.086,0.259,4.488,6.687c-0.989,0.13-1.49-0.513-1.951-1.222
		c-1.238-2.708-3.764-2.155-5.959-2.274c-5.86-0.318-11.756,0.518-17.599-0.525C63.847,67.665,63.382,67.354,62.944,67.004"/>
	<path clip-path="url(#SVGID_2_)" fill="#DB4431" d="M62.944,67.004c0.355,0.006,0.711,0.012,1.066,0.018
		c1.668,2.273,4.138,2.419,6.624,2.457c4.262,0.066,8.525-0.014,12.787,0.043c1.972,0.026,3.962,0.029,5.565,1.47
		c0.288,0.32,0.576,0.64,0.864,0.96c-8.321,1.513-16.715,0.57-25.061,0.499C61.059,72.419,63.176,68.991,62.944,67.004"/>
	<path clip-path="url(#SVGID_2_)" fill="#4972B3" d="M326.862,230.953c15.983,0.033,6.374-0.074,22.392,0.069
		c1.596,0.014,3.356-0.544,4.706,0.888c-8.53,1.763-17.159,0.465-25.735,0.807C327.2,232.757,326.167,232.425,326.862,230.953"/>
	<path clip-path="url(#SVGID_2_)" fill="#0D964E" d="M399.964,232.098c2.061-2.075,4.659-0.98,6.992-1.044
		c21.087-0.569-1.849-0.052,19.138-0.089c0.996,1.566-0.309,1.676-1.208,1.649C408.411,232.142,415.719,234.441,399.964,232.098"/>
	<path clip-path="url(#SVGID_2_)" fill="#D9D9D9" d="M360.037,66.004c13.487-0.001,26.977,0.104,40.461-0.07
		c3.84-0.05,5.202,1.21,3.911,6.309c-0.176-4.43-1.821-5.365-4.93-5.322c-13.152,0.184-26.309,0.077-39.462,0.076
		C359.99,66.665,359.997,66.333,360.037,66.004"/>
	<path clip-path="url(#SVGID_2_)" fill="#FEFEFE" d="M230.792,49.997c-39.474,0-78.949-0.077-118.422,0.101
		c-4.788,0.021-6.82-0.784-6.517-6.192c0.497-8.892,0.122-8.913,9.175-8.913c78.116,0,156.231-0.001,234.347,0
		c6.618,0,6.677,0.005,6.611,6.333c-0.104,10.069,1.355,8.635-8.771,8.649C308.408,50.029,269.6,49.997,230.792,49.997"/>
	<path clip-path="url(#SVGID_2_)" fill="#066824" d="M60.102,34.918c4.969-0.462,9.939-0.467,14.909-0.01
		c0.356,0.461,0.663,0.952,0.93,1.472c0.199,0.556,0.322,1.129,0.391,1.715c-0.185,3.777,1.069,7.72-1.259,11.26
		c-4.792,1.025-9.587,0.984-14.385,0.036c-0.224-0.11-0.447-0.224-0.668-0.343C57.641,44.324,57.547,39.614,60.102,34.918"/>
	<path clip-path="url(#SVGID_2_)" fill="#CD392D" d="M30.173,36.269c4.938-3.427,10.378-1.038,15.585-1.345
		c0.979,4.723,1.012,9.447,0.002,14.17c-5.201,0.249-10.414,0.969-15.579-0.36C29.533,44.579,30.133,40.424,30.173,36.269"/>
	<path clip-path="url(#SVGID_2_)" fill="#FDB800" d="M60.102,34.918c-0.027,4.71-0.055,9.42-0.082,14.13
		c-4.338,0.509-8.678,0.411-13.02,0.059c-1.561-4.732-1.567-9.463,0-14.194L60.102,34.918z"/>
	<path clip-path="url(#SVGID_2_)" fill="#6B73DB" d="M410.001,49c0.105,0.326,0.101,0.649-0.015,0.972
		c-0.666,0.524-1.401,0.913-2.264,0.926c-10.802,0.155-21.603,0.175-32.404-0.011c-0.869-0.015-1.587-0.431-2.196-1.035
		l-0.022,0.136c-1.013-4.988-0.795-9.99-0.157-14.995l0.184,0.099c0.466-0.376,0.896-0.34,1.297,0.108
		c0.295,0.427,0.499,0.892,0.625,1.394c0.126,0.499,0.19,1.007,0.218,1.52c0.461,2.958-0.744,6.103,1.034,8.904
		c6.583,1.293,13.216,0.264,19.809,0.582c4.127,0.2,8.282-0.404,12.394,0.416C409.042,48.283,409.541,48.612,410.001,49"/>
	<path clip-path="url(#SVGID_2_)" fill="#FEFEF3" d="M373.023,34.092c0.229-0.234,0.444-0.66,0.684-0.675
		c11.853-0.699,23.708-0.63,35.562-0.042c0.251,0.013,0.484,0.415,0.726,0.635c-1.314,1.208-2.947,1.363-4.614,1.372
		c-9.052,0.048-18.103,0.022-27.153,0.021C376.359,35.403,374.656,34.931,373.023,34.092"/>
	<path clip-path="url(#SVGID_2_)" fill="#ABAFE7" d="M373.023,34.092c12.324-0.027,24.648-0.055,36.972-0.082
		c-0.007,0.338-0.014,0.677-0.021,1.016c-0.496,0.423-1.046,0.755-1.649,1.001c-10.194,0.799-20.405,0.232-30.609,0.314
		c-1.345,0.011-2.616-0.306-3.661-1.239l-0.464-0.046l-0.466,0.036C373.092,34.759,373.058,34.425,373.023,34.092"/>
	<path clip-path="url(#SVGID_2_)" fill="#E1E4EC" d="M373.121,49.852c12.289,0.04,24.577,0.08,36.866,0.12
		c0.004,0.342,0.007,0.685,0.011,1.028c-12.333,0.8-24.666,0.802-37-0.002C373.039,50.616,373.08,50.234,373.121,49.852"/>
	<path clip-path="url(#SVGID_2_)" fill="#FDFBF3" d="M372.999,50.999C385.332,51,397.666,51,409.999,51
		c-0.815,1.077-1.998,0.996-3.152,0.996c-10.232,0.002-20.465,0.002-30.697,0C374.996,51.997,373.812,52.077,372.999,50.999"/>
	<path clip-path="url(#SVGID_2_)" fill="#6971DD" d="M60.688,49.391l14.378-0.581c4.062-2.169,8.319-1.318,12.557-0.815
		c0.594,0.224,1.079,0.593,1.458,1.102c0.004,0.291-0.055,0.569-0.177,0.833c-4.602,1.255-9.294,0.218-13.933,0.554
		c-4.938-0.411-9.96,0.867-14.84-0.735C60.231,49.496,60.417,49.376,60.688,49.391"/>
	<path clip-path="url(#SVGID_2_)" fill="#353ED3" d="M89.082,49.097c-0.327-0.103-0.655-0.206-0.982-0.308
		c-1.778-1.657-1.57-3.879-1.528-5.958c0.064-3.111-1.282-4.43-4.39-4.401c-2.393,0.023-4.952,0.447-6.998-1.416
		c0.001-0.343,0.002-0.686,0.003-1.03c4.191-1.366,8.637,0.481,12.816-1.019c0.334,0.009,0.667,0.019,1,0.028
		c2.197,4.689,2.071,9.39,0.077,14.101L89.082,49.097z"/>
	<path clip-path="url(#SVGID_2_)" fill="#FEFEFE" d="M60.132,49.749c4.945,0.091,9.89,0.183,14.835,0.274
		c0.346,0.205,0.465,0.416,0.359,0.635c-0.107,0.222-0.217,0.333-0.329,0.333h-25.81c-0.007-0.237-0.014-0.473-0.021-0.709
		C52.821,50.104,56.477,49.926,60.132,49.749"/>
	<path clip-path="url(#SVGID_2_)" fill="#FEFEFE" d="M74.976,33.778H49.232c-0.004-0.257-0.009-0.513-0.013-0.77h25.777
		c0.33,0.18,0.437,0.353,0.322,0.522C75.205,33.695,75.092,33.778,74.976,33.778"/>
	<path clip-path="url(#SVGID_2_)" fill="#F3FDFD" d="M30.173,36.269c0.683,4.155,0.565,8.31,0.008,12.465
		c-2.357-0.276-1.039-2.101-1.102-3.09c-0.21-3.292-0.446-6.668,0.084-9.887C29.432,34.125,29.819,36.015,30.173,36.269"/>
	<path clip-path="url(#SVGID_2_)" fill="#FEC300" d="M47,34.913c0,4.731,0,9.463,0,14.194c-0.413-0.004-0.825-0.009-1.238-0.013
		c-0.843-4.723-0.849-9.446-0.003-14.17C46.172,34.919,46.586,34.917,47,34.913"/>
	<path clip-path="url(#SVGID_2_)" fill="#FEFEF3" d="M411.301,48.941v-13.69c0.126-0.005,0.252-0.01,0.378-0.014v13.692
		C411.553,48.933,411.427,48.937,411.301,48.941"/>
	<path clip-path="url(#SVGID_2_)" fill="#FEFEF3" d="M74.976,33.778c0.014-0.257,0.021-0.513,0.02-0.77c4.596,0,9.193,0,13.789,0
		c0.004,0.257,0.007,0.513,0.011,0.77H74.976z"/>
	<path clip-path="url(#SVGID_2_)" fill="#F7F6F1" d="M90.997,34.999c2.041,4.532,0.681,9.267,0.812,13.912
		c0.002,0.078-0.221,0.221-0.346,0.23c-0.152,0.01-0.31-0.092-0.466-0.145C89.442,44.331,89.443,39.665,90.997,34.999"/>
	<path clip-path="url(#SVGID_2_)" fill="#FEFEF4" d="M74.997,50.99c0.001-0.323-0.009-0.646-0.03-0.968
		c4.646-0.03,9.292-0.061,13.938-0.092c-2.266,2.289-5.083,0.655-7.62,1.01C79.227,51.227,77.096,50.993,74.997,50.99"/>
	<path clip-path="url(#SVGID_2_)" fill="#F6F6EC" d="M372.942,34.993c0.053,4.998,0.104,9.997,0.157,14.995
		C371.157,45.009,371.562,40.006,372.942,34.993"/>
	<path clip-path="url(#SVGID_2_)" fill="#474FD6" d="M408.998,35.184c0.322-0.066,0.648-0.118,0.977-0.158
		c0.008,4.658,0.018,9.316,0.026,13.974c-0.34-0.016-0.681-0.031-1.021-0.046c-2.369-3.928-1.251-8.135-0.988-12.276
		C408.225,36.112,408.562,35.614,408.998,35.184"/>
	<path clip-path="url(#SVGID_2_)" fill="#6971DD" d="M89.08,49.094c-0.026-4.7-0.052-9.401-0.077-14.101
		c0.335,0.002,0.67,0.004,1.005,0.006c0.8,4.668,0.749,9.339,0.027,14.01l-0.469,0.139L89.08,49.094z"/>
	<path clip-path="url(#SVGID_2_)" fill="#E2E3EF" d="M90.035,49.009c-0.009-4.67-0.018-9.341-0.026-14.011
		c0.329-0.001,0.659-0.001,0.988,0.001c0,4.666,0,9.331,0,13.997C90.677,49.001,90.355,49.005,90.035,49.009"/>
	<path clip-path="url(#SVGID_2_)" fill="#4952D7" d="M88.003,34.964c-4.119,2.269-8.561,0.476-12.816,1.019
		c-0.059-0.358-0.117-0.716-0.176-1.075C79.342,34.928,83.672,34.946,88.003,34.964"/>
	<path clip-path="url(#SVGID_2_)" fill="#4F77B5" d="M359.838,132.862h29.881l-0.015,1.23c-17.427-1.511-13.79,2.914-29.896-1.23
		C359.808,132.861,359.838,132.862,359.838,132.862"/>
	<path clip-path="url(#SVGID_2_)" fill="#DCDCDC" d="M158.263,273.999c29.138,0,58.277,0,87.415,0
		c1.165,0.001,2.331-0.006,3.496,0.016c1.423,0.025,2.752,0.234,2.665,2.124c-0.072,1.55-1.184,1.818-2.444,1.837
		c-0.998,0.014-1.997,0.022-2.996,0.022c-58.943,0.001-117.885,0.001-176.828,0.001c-0.833,0-1.665,0.012-2.497-0.012
		c-1.347-0.036-2.817,0.024-2.91-1.878c-0.093-1.896,1.279-2.067,2.688-2.095c1.165-0.024,2.331-0.016,3.497-0.016
		C99.653,273.999,128.958,273.999,158.263,273.999"/>
	<path clip-path="url(#SVGID_2_)" fill="#3E47D5" d="M64.008,205.01c-0.001-0.34-0.002-0.68-0.002-1.02c24.255,0,48.511,0,72.766,0
		c0.001,0.34,0.003,0.68,0.004,1.02H64.008z"/>
	<path clip-path="url(#SVGID_2_)" fill="#EEC339" d="M60.018,143.02c-0.003-13.004-0.007-26.008-0.01-39.012
		c1.555-0.901,3.259-0.473,4.889-0.473c63.402-0.025,126.804-0.025,190.205,0c1.631,0,3.335-0.426,4.891,0.471
		c0.001,21.303-0.073,42.605,0.076,63.906c0.027,3.763-0.798,5.186-4.94,5.178c-63.407-0.133-126.814-0.131-190.222-0.004
		c-4.079,0.009-5.181-1.301-4.974-5.141c0.286-5.31,0.084-10.647,0.092-15.973c0.423-0.363,0.913-0.526,1.474-0.494
		c0.551,0.09,1.065,0.269,1.563,0.529c0.54,0.236,1.089,0.404,1.673,0.49c40.962,0.221,81.912,0.054,122.862,0.079
		c21.972,0.014,43.946,0.114,65.898-0.073c0.262-0.05,0.541-0.095,0.801-0.148c0.458-0.202,0.922-0.431,1.346-0.702
		c1.382-2.907,2.415-5.762-1.039-8.057c-1.011-0.164-2.01-0.174-3.009-0.174c-62.935,0.011-125.871-0.074-188.805,0.045
		c-0.319,0.014-0.638,0.024-0.957,0.036C61.176,143.536,60.571,143.374,60.018,143.02"/>
	<path clip-path="url(#SVGID_2_)" fill="#EDC131" d="M259.992,104.006c-66.662,0.001-133.324,0.001-199.984,0.002
		c-0.005-0.327-0.01-0.653-0.013-0.98c66.669,0.002,133.339,0.003,200.009,0.004C260,103.357,259.996,103.681,259.992,104.006"/>
	<path clip-path="url(#SVGID_2_)" fill="#EFC84A" d="M61.277,151.854c-0.418,0.04-0.836,0.079-1.254,0.119
		c-0.002-2.985-0.004-5.969-0.006-8.953c0.361,0.026,0.722,0.051,1.082,0.077C62.945,145.98,62.816,148.903,61.277,151.854"/>
	<path clip-path="url(#SVGID_2_)" fill="#00A453" d="M64.004,223.997c-0.387-2.977,0.796-4.062,3.897-4.052
		c29.732,0.093,59.465,0.093,89.197,0c3.104-0.011,4.281,1.08,3.898,4.054C128.666,223.998,96.335,223.998,64.004,223.997"/>
	<path clip-path="url(#SVGID_2_)" fill="#DC4B39" d="M88.986,70.992c-7.051,0.002-14.104-0.12-21.151,0.062
		c-3.094,0.079-4.2-1.122-3.826-4.033c7.057-0.007,14.118,0.11,21.17-0.08C88.301,66.856,89.356,68.1,88.986,70.992"/>
	<path clip-path="url(#SVGID_2_)" fill="#4952D7" d="M75.184,37.014c0.164-0.002,0.328-0.006,0.493-0.007
		c12.028-0.069,12.028-0.069,12.422,11.783c-4.345,0.007-8.69,0.015-13.034,0.022C75.105,44.878,75.145,40.946,75.184,37.014"/>
	<path clip-path="url(#SVGID_2_)" fill="#464FD7" d="M374.018,48.007c0.007-3.675,0.015-7.349,0.021-11.024
		c0.561-0.317,1.14-0.356,1.737-0.124c1.816,1.307,3.824,1.73,6.07,1.695c5.136-0.081,10.275-0.033,15.414-0.017
		c1.491,0.005,2.987-0.039,4.463,0.237c2.108,0.395,3.951,1.291,3.959,3.712s-1.812,3.457-3.939,3.708
		c-4.95,0.585-9.936,0.094-14.9,0.289c-3.746,0.148-7.664-0.836-11.117,1.51C375.158,48.294,374.589,48.299,374.018,48.007"/>
	<path clip-path="url(#SVGID_2_)" fill="#3A43D4" d="M374.018,48.007c0.329-0.011,0.657-0.018,0.986-0.021
		c2.041-1.359,4.336-1.491,6.694-1.482c6.811,0.026,13.621-0.016,20.433,0.021c2.803,0.015,4.39-0.972,4.39-4.03
		c-0.001-3.064-1.599-4.038-4.397-4.023c-6.811,0.037-13.621-0.004-20.432,0.02c-2.359,0.009-4.655-0.12-6.692-1.49
		c-0.319-0.002-0.64-0.008-0.96-0.019c-0.029-0.324-0.034-0.649-0.014-0.974c11.656-0.817,23.312-0.819,34.967,0.001
		c-0.004,4.315-0.008,8.63-0.012,12.944c-10.275,0.015-20.55,0.048-30.826,0.024C376.733,48.976,375.121,49.483,374.018,48.007"/>
	<path clip-path="url(#SVGID_2_)" fill="#464FD7" d="M408.992,36.01c-11.655,0-23.312-0.001-34.968-0.001
		c-0.024-0.304-0.016-0.606,0.03-0.907c11.647,0.027,23.295,0.054,34.943,0.081C408.998,35.459,408.997,35.735,408.992,36.01"/>
	<path clip-path="url(#SVGID_2_)" fill="#04A554" d="M178.925,131.128c0.012,2.165,0.023,4.33,0.035,6.495
		c-1.095,1.606-2.749,0.819-4.113,0.82c-37.02,0.026-74.041,0.09-111.056,0.004c-0.725-0.127-1.081-0.561-1.065-1.296
		c0.766-6.231,1.016-6.533,7.399-6.54c33.569-0.04,67.138-0.044,100.707,0.031c2.151,0.005,4.73-0.757,6.192,1.845
		c0.386-0.327,0.594-0.747,0.66-1.253C178.064,130.749,178.477,130.716,178.925,131.128"/>
	<path clip-path="url(#SVGID_2_)" fill="#E7E5DE" d="M61.277,151.854c-0.06-2.919-0.119-5.839-0.178-8.757l-0.07-0.001
		c1.682-1.11,3.567-0.553,5.346-0.554c60.894-0.034,121.788-0.028,182.682-0.028c8.547,0,9.299,1,7.182,9.548
		c-1.789,1.232-3.837,0.922-5.811,0.922c-60.566,0.015-121.133,0.015-181.7-0.002c-1.812,0-3.672,0.279-5.409-0.545
		c-0.631-0.476-0.719-1.038-0.267-1.686c2.839-1.984,6.1-1.349,9.204-1.351c57.251-0.04,114.501-0.023,171.751-0.045
		c2.641-0.001,5.339,0.375,7.855-0.733c1.302-1.532,0.498-2.474-0.983-2.967c-1.428-0.476-2.969-0.238-4.46-0.238
		c-60.023-0.003-120.046-0.016-180.049,0.009c-0.507,0.019-1.032,0.054-1.531,0.127c-2.617,1.266-1.135,4.206-2.429,6.009
		c-0.141,0.183-0.283,0.366-0.425,0.548C61.763,151.984,61.527,151.899,61.277,151.854"/>
	<path clip-path="url(#SVGID_2_)" fill="#EFC84A" d="M255.995,151.977c0.191-8.95,0.191-8.953-8.797-8.95
		c-62.056,0.022-124.112,0.045-186.169,0.069c1.392-1.808,3.38-1.067,5.107-1.068c61.914-0.038,123.828-0.037,185.742-0.005
		c1.747,0.001,3.709-0.655,5.16,1.02c0.72,3.315,0.737,6.63-0.009,9.943c-0.346,0.004-0.69,0.007-1.034,0.01
		c-0.259-0.226-0.345-0.453-0.259-0.679C255.822,152.09,255.908,151.977,255.995,151.977"/>
	<path clip-path="url(#SVGID_2_)" fill="#F4ECD5" d="M62.023,157.007c1.622-1.788,3.76-1.001,5.658-1.002
		c60.619-0.043,121.239-0.036,181.858-0.035c7.161,0,8.163,1.673,5.463,9.091c-0.337-0.377-0.62-0.79-0.856-1.235
		c-0.913-1.74,0.578-4.792-2.853-5.146c-45.765-0.174-91.506-0.007-137.248-0.058c-14.471-0.016-28.942,0.01-43.413-0.014
		c-2.32-0.004-4.666,0.194-6.934-0.545C63.083,157.802,62.525,157.448,62.023,157.007"/>
	<path clip-path="url(#SVGID_2_)" fill="#F7DF91" d="M255.995,151.977c0,0.34,0,0.68,0,1.019v0.06
		c-1.584,0.774-3.277,0.409-4.917,0.41c-61.401,0.021-122.803,0.021-184.205-0.005c-1.624-0.001-3.335,0.461-4.873-0.51
		c-0.01-0.28-0.015-0.561-0.015-0.842c-0.038-0.178-0.034-0.356,0.012-0.533c0.392-0.115,0.714-0.012,0.966,0.309
		c43.893,0.038,87.786,0.083,131.68,0.11C215.093,152.008,235.544,151.984,255.995,151.977"/>
	<path clip-path="url(#SVGID_2_)" fill="#EDC131" d="M62,152.952c62.332,0.016,124.664,0.031,186.996,0.05
		c2.333,0,4.666,0.035,6.999,0.054c-1.512,1.553-3.455,0.915-5.208,0.916c-61.213,0.033-122.427,0.033-183.64-0.002
		C65.407,153.969,63.439,154.66,62,152.952"/>
	<path clip-path="url(#SVGID_2_)" fill="#EAEAEB" d="M254.964,163.997c0.013,0.355,0.026,0.709,0.039,1.064
		c-18.788,0.05-37.576,0.133-56.365,0.142c-43.734,0.021-87.469,0.02-131.204-0.042c-1.833-0.003-4.038,0.996-5.487-1.147
		c0.519-0.424,1.085-0.77,1.695-1.046c2.426-0.821,4.943-0.58,7.428-0.581c58.257-0.017,116.514-0.016,174.771-0.001
		c2.486,0.001,5.001-0.229,7.438,0.545C253.897,163.196,254.458,163.554,254.964,163.997"/>
	<path clip-path="url(#SVGID_2_)" fill="#C7C556" d="M178.997,129.036c-0.021,0.372-0.043,0.743-0.064,1.115
		c-1.545,0.745-3.192,0.847-4.875,0.847c-35.825-0.005-71.651,0.009-107.477-0.016c-0.999-0.001-2.003-0.005-2.959-0.372
		c-0.705-0.343-0.906-0.876-0.605-1.599l-0.018-0.012c1.22-0.783,2.588-0.471,3.892-0.472c36.077-0.016,72.154-0.017,108.231,0.001
		C176.422,128.529,177.796,128.19,178.997,129.036"/>
	<path clip-path="url(#SVGID_2_)" fill="#3DB46C" d="M63.015,130.031c38.639,0.04,77.278,0.079,115.917,0.119
		c0.104,0.327,0.102,0.652-0.008,0.977c0.001,0.001-0.469-0.003-0.469-0.003l-0.469,0.01c-1.267,0.617-2.621,0.337-3.934,0.337
		c-36.773,0.005-73.545,0.032-110.318-0.002C62.951,131.261,62.712,130.782,63.015,130.031"/>
	<path clip-path="url(#SVGID_2_)" fill="#FECF55" d="M63.057,137.824c36.972,0.002,73.944,0.007,110.916-0.002
		c1.662-0.001,3.324-0.129,4.986-0.198c-1.332,2.298-3.572,1.325-5.401,1.328c-36.851,0.057-73.701,0.04-110.552,0.038
		c-0.285-0.272-0.372-0.535-0.262-0.79C62.853,137.949,62.956,137.824,63.057,137.824"/>
	<path clip-path="url(#SVGID_2_)" fill="#F7C334" d="M178.997,129.036c-38.666-0.012-77.332-0.025-115.998-0.037
		c1.472-1.636,3.425-0.97,5.17-0.972c35.227-0.038,70.454-0.038,105.682,0.001C175.589,128.03,177.553,127.344,178.997,129.036"/>
	<path clip-path="url(#SVGID_2_)" fill="#EACD75" d="M61.989,122.039c0.003-2.999,0.006-5.997,0.009-8.996
		c1.197-0.858,2.572-0.513,3.871-0.514c30.083-0.019,60.166-0.019,90.249-0.001c1.302,0.001,2.673-0.328,3.881,0.493
		c-0.01,0.372-0.02,0.744-0.03,1.115c-2.162,1.736-4.741,1.25-7.183,1.253c-26.866,0.036-53.731,0.015-80.597,0.032
		c-2.148,0.001-4.314-0.206-6.419,0.315c-2.019,1.064-1.211,3.171-1.733,4.786c-0.124,0.51-0.35,0.97-0.664,1.388
		C62.946,122.317,62.484,122.359,61.989,122.039"/>
	<path clip-path="url(#SVGID_2_)" fill="#3843DA" d="M159.891,115.15c-0.016,1.615-0.033,3.229-0.049,4.844
		c-0.928,0.634-1.784,0.5-2.586-0.236c-2.177-2.913-5.4-2.123-8.26-2.131c-25.542-0.078-51.085-0.026-76.628-0.068
		c-2.78-0.004-5.675,0.455-8.229-1.221c-0.529-0.574-0.507-1.126,0.063-1.658c31.29-0.375,62.58-0.069,93.87-0.165
		C158.769,114.513,159.377,114.673,159.891,115.15"/>
	<path clip-path="url(#SVGID_2_)" fill="#3642DE" d="M157.986,119.992c0.619,0.001,1.237,0.001,1.856,0.002
		c0.189,0.26,0.224,0.539,0.106,0.838c-1.691,1.807-3.932,1.562-6.069,1.564c-28.245,0.029-56.491,0.027-84.737,0.002
		c-2.141-0.002-4.368,0.223-6.138-1.432c0.002-1.979,0.003-3.959,0.004-5.938c0.331-0.379,0.66-0.377,0.987,0.006
		c0.004,0.326,0.008,0.653,0.012,0.98c2.336,2.925,5.68,2.345,8.748,2.353c25.71,0.061,51.42,0.015,77.129,0.055
		C152.66,118.427,155.582,117.955,157.986,119.992"/>
	<path clip-path="url(#SVGID_2_)" fill="#F2C42D" d="M160,113.021c-32.667,0.007-65.334,0.014-98.001,0.022
		c1.268-1.588,3.056-1.02,4.642-1.022c29.568-0.03,59.135-0.03,88.703,0C156.933,112.023,158.715,111.462,160,113.021"/>
	<path clip-path="url(#SVGID_2_)" fill="#EEC232" d="M159.997,122.993c-1.295,1.537-3.073,0.983-4.664,0.984
		c-29.557,0.03-59.113,0.03-88.67,0c-1.589-0.002-3.37,0.558-4.658-0.992c1.97-1.212,4.171-0.975,6.322-0.976
		c28.631-0.011,57.262-0.015,85.894,0.01C156.181,122.021,158.25,121.616,159.997,122.993"/>
	<path clip-path="url(#SVGID_2_)" fill="#FCD657" d="M159.997,122.993c-32.664-0.003-65.328-0.005-97.992-0.008
		c-0.005-0.316-0.009-0.631-0.015-0.947c0.347-0.017,0.695-0.035,1.043-0.054c1.056-0.696,2.25-0.46,3.394-0.461
		c30.053-0.011,60.107-0.011,90.161-0.001c1.147,0.001,2.335-0.214,3.408,0.426C159.997,122.296,159.997,122.645,159.997,122.993"/>
	<path clip-path="url(#SVGID_2_)" fill="#9B93B2" d="M159.996,121.948c-32.321,0.012-64.643,0.024-96.964,0.036
		c-0.009-0.339-0.018-0.678-0.027-1.018c32.314-0.044,64.628-0.088,96.943-0.133C159.964,121.204,159.98,121.576,159.996,121.948"/>
	<path clip-path="url(#SVGID_2_)" fill="#7475C9" d="M63.996,115.033l-0.493-0.046l-0.494,0.04c0.632-1.459,1.959-1.009,3.032-1.008
		c31.31,0.02,62.619,0.07,93.928,0.116c-0.026,0.338-0.052,0.675-0.078,1.013C127.925,115.111,95.96,115.072,63.996,115.033"/>
	<path clip-path="url(#SVGID_2_)" fill="#EDC02E" d="M257.028,152.986c0.003-3.315,0.007-6.629,0.01-9.944
		C258.539,146.359,258.548,149.673,257.028,152.986"/>
	<path clip-path="url(#SVGID_2_)" fill="#EFC84A" d="M63.057,137.824c-0.017,0.389-0.034,0.778-0.051,1.166
		c-1.607-3.328-1.623-6.654,0.01-9.979c0,0.34-0.001,0.681-0.001,1.021c-0.003,0.354-0.006,0.709-0.009,1.063
		c0.837,1.926,0.588,3.879,0.149,5.837C63.074,137.224,63.042,137.521,63.057,137.824"/>
	<path clip-path="url(#SVGID_2_)" fill="#F9C333" d="M180.642,131.186c0.254,2.092,0.76,3.993-0.212,6.139
		C179.86,134.984,179.738,132.987,180.642,131.186"/>
	<path clip-path="url(#SVGID_2_)" fill="#EFF2F9" d="M62.966,163.995c-0.34,0.006-0.679,0.012-1.019,0.018
		c-0.313-2.339-0.432-4.676,0.076-7.006c0.293,0.04,0.587,0.056,0.882,0.046C64.79,159.351,64.737,161.665,62.966,163.995"/>
	<path clip-path="url(#SVGID_2_)" fill="#474FD6" d="M375,37.002c9.612-0.002,19.23,0.22,28.833-0.098
		c4.997-0.165,4.08,2.95,4.181,5.84c0.104,2.979,0.258,5.475-4.177,5.341c-9.604-0.29-19.222-0.095-28.834-0.099
		c1.171-2.423,3.166-3.067,5.742-3.024c6.648,0.109,13.302,0.037,19.953,0.032c1.88-0.001,4.073,0.002,4.069-2.5
		c-0.004-2.501-2.201-2.49-4.079-2.492c-6.65-0.005-13.304-0.077-19.952,0.033C378.158,40.079,376.168,39.426,375,37.002"/>
	<path clip-path="url(#SVGID_2_)" fill="#049E49" d="M63.155,136.931c-0.049-1.946-0.099-3.893-0.148-5.838
		c38.326,0.013,76.652,0.026,114.979,0.039c0,1.613,0,3.225,0,4.837c-0.52-3.501-2.544-4.038-5.628-4.03
		c-34.554,0.094-69.108,0.177-103.66-0.088C64.385,131.817,64.074,134.245,63.155,136.931"/>
	<path clip-path="url(#SVGID_2_)" fill="#DCDCDC" d="M253.995,150.992c-63.664,0.001-127.328,0.003-190.992,0.004
		c-0.779-2.324-0.746-4.649-0.014-6.975c0.342-0.001,0.685-0.003,1.027-0.004c1.897,0.965,3.932,0.471,5.894,0.472
		c59.623,0.031,119.245,0.024,178.868,0.026C255.033,144.515,255.033,144.523,253.995,150.992"/>
	<path clip-path="url(#SVGID_2_)" fill="#DDDDE2" d="M253.995,150.992c0.829-4.783-1.113-6.113-5.941-6.1
		c-59.45,0.164-118.901,0.115-178.351,0.072c-1.905-0.001-4.03,0.762-5.687-0.948c61.786-0.003,123.571-0.009,185.356-0.009
		C255.658,144.008,256.209,144.86,253.995,150.992"/>
	<path clip-path="url(#SVGID_2_)" fill="#EFF1F6" d="M62.989,144.021c0.005,2.325,0.009,4.65,0.014,6.975
		c-0.009,0.297-0.022,0.595-0.04,0.891c-0.322-0.103-0.644-0.204-0.966-0.308C62.467,149.077,61.042,146.327,62.989,144.021"/>
	<path clip-path="url(#SVGID_2_)" fill="#DCDCDC" d="M62.966,163.995c-0.02-2.314-0.039-4.629-0.06-6.942
		c63.701-0.012,127.403-0.024,191.105-0.037c0.721,2.327,0.774,4.652-0.022,6.975L62.966,163.995z"/>
	<path clip-path="url(#SVGID_2_)" fill="#E0E2EB" d="M253.988,163.991c0.007-2.325,0.015-4.65,0.022-6.974
		c1.89,2.112,0.608,4.657,0.954,6.98C254.639,163.997,254.313,163.995,253.988,163.991"/>
	<path clip-path="url(#SVGID_2_)" fill="#464FD6" d="M157.986,119.992c-29.696,0.002-59.393-0.014-89.089,0.036
		c-2.896,0.005-5.512,0.077-4.89-4.014c29.7-0.005,59.399,0.009,89.098-0.044C156.007,115.964,158.614,115.904,157.986,119.992"/>
</g>
</svg>
